<?xml version="1.0" standalone="no"?>
<!DOCTYPE svg PUBLIC "-//W3C//DTD SVG 20010904//EN" "http://www.w3.org/TR/2001/REC-SVG-20010904/DTD/svg10.dtd">
<svg xmlns="http://www.w3.org/2000/svg" version="1.0" width="1024.000000pt" height="1024.000000pt" viewBox="0 0 1024.000000 1024.000000" preserveAspectRatio="xMidYMid meet">
<metadata>
Created by potrace 1.16, written by Peter Selinger 2001-2019
<meta name="Producer" content="Online-Convert"/></metadata>
<g transform="translate(0.000000,1024.000000) scale(0.100000,-0.100000)" fill="#000000" stroke="none">
<path d="M2394 9822 c7 -12 -5 -16 -33 -13 -7 2 -10 -2 -7 -7 3 -5 -1 -15 -9 -22 -12 -10 -21 -10 -42 -1 -23 10 -25 10 -21 -7 5 -17 -1 -18 -63 -17 -38 1 -69 -2 -69 -5 0 -4 -14 -10 -31 -14 -20 -4 -28 -10 -23 -18 4 -6 -3 -4 -17 5 -29 21 -46 22 -30 3 9 -11 9 -16 0 -22 -7 -4 -10 -3 -7 2 3 5 0 15 -8 22 -12 11 -15 11 -20 -1 -6 -16 -34 -19 -51 -5 -8 6 -17 1 -28 -16 -10 -15 -22 -23 -29 -19 -15 10 -36 13 -35 5 3 -19 -2 -42 -8 -42 -18 1 -35 19 -28 30 6 9 9 10 15 0 4 -7 8 -1 8 15 0 23 -2 25 -10 11 -5 -9 -14 -13 -20 -10 -6 4 -8 3 -5 -3 9 -15 -13 -30 -41 -27 -12 1 -20 -1 -18 -4 9 -8 -14 -43 -25 -37 -5 4 -9 1 -9 -4 0 -15 -27 -14 -34 2 -4 6 -4 2 -2 -11 4 -23 4 -23 -22 -6 -18 12 -23 13 -16 3 14 -16 0 -34 -26 -34 -8 0 -14 -6 -12 -12 3 -16 -10 -17 -24 -3 -8 8 -15 5 -25 -7 -13 -17 -13 -17 6 -4 19 14 19 14 2 -5 -15 -16 -19 -17 -27 -4 -7 11 -10 11 -10 2 0 -7 -4 -10 -10 -7 -6 4 -7 -1 -3 -12 6 -17 6 -17 -14 0 -20 17 -21 17 -38 0 -10 -10 -25 -18 -34 -18 -9 0 -15 -8 -15 -17 1 -12 -5 -18 -18 -18 -15 0 -18 -5 -14 -16 6 -15 4 -15 -11 -3 -16 12 -15 11 1 -16 19 -30 19 -30 0 -15 -10 8 -22 20 -26 25 -7 9 -12 -7 -9 -27 0 -5 -4 -8 -9 -8 -6 0 -10 5 -10 10 0 7 -6 7 -20 0 -11 -6 -20 -17 -20 -25 0 -8 -6 -15 -13 -15 -20 0 -51 -37 -38 -45 6 -3 11 -12 10 -18 0 -9 -2 -8 -6 1 -2 6 -10 9 -15 6 -7 -5 -8 -2 -3 6 6 10 4 12 -9 7 -10 -4 -22 -7 -27 -7 -6 0 -7 -5 -4 -10 4 -6 10 -8 15 -5 5 3 12 0 16 -6 4 -7 3 -9 -3 -6 -6 4 -16 0 -22 -7 -9 -11 -9 -16 0 -22 9 -5 7 -11 -6 -21 -25 -17 -35 -17 -35 3 0 11 6 14 23 9 21 -7 21 -6 3 7 -12 10 -16 20 -11 29 4 8 -2 4 -14 -8 -11 -12 -21 -29 -21 -38 0 -8 -9 -15 -19 -15 -31 0 -51 -11 -51 -29 1 -14 3 -13 15 3 8 11 18 16 22 12 5 -4 -3 -17 -17 -28 -14 -11 -24 -23 -23 -27 1 -3 -5 -5 -13 -3 -8 2 -14 -5 -14 -18 0 -11 -6 -20 -12 -20 -9 0 -8 -4 2 -10 13 -8 13 -10 -2 -11 -10 -1 -23 -2 -30 -3 -6 0 -13 -8 -15 -16 -4 -13 -3 -13 6 0 9 13 11 12 11 -3 0 -13 -6 -17 -22 -15 -11 2 -23 -3 -25 -10 -3 -8 2 -10 14 -7 10 3 5 -1 -12 -9 -16 -8 -33 -12 -37 -9 -5 2 -8 -3 -8 -12 0 -10 -5 -13 -12 -9 -7 5 -8 3 -4 -5 5 -7 14 -10 20 -8 7 3 13 -1 13 -8 0 -10 -5 -11 -19 -4 -16 9 -22 5 -19 -13 0 -4 -8 -5 -19 -3 -12 2 -18 0 -15 -6 4 -5 12 -9 20 -9 8 0 16 -4 19 -9 4 -5 -4 -7 -16 -3 -21 5 -22 4 -9 -11 11 -14 11 -17 -1 -17 -18 0 -53 -41 -50 -58 3 -11 -1 -11 -20 -1 -23 12 -23 12 -5 -9 20 -21 10 -36 -17 -26 -21 8 -33 -23 -17 -47 9 -15 8 -19 -4 -19 -18 0 -19 -12 -2 -29 10 -10 8 -11 -6 -5 -12 4 -17 14 -14 25 3 10 0 20 -7 22 -12 5 -15 -31 -3 -50 4 -6 0 -14 -9 -17 -8 -3 -13 -9 -11 -13 2 -5 -5 -17 -16 -28 -11 -11 -16 -13 -12 -5 6 12 5 13 -5 3 -11 -10 -11 -15 0 -28 11 -14 7 -19 -12 -16 -10 1 -10 -2 2 -34 5 -14 6 -24 1 -21 -5 4 -12 0 -14 -6 -4 -10 -6 -9 -6 1 -1 11 -4 11 -16 1 -9 -8 -12 -17 -7 -24 5 -6 12 -20 15 -31 7 -19 6 -19 -7 -2 -17 22 -28 22 -24 0 2 -12 -4 -18 -19 -19 -40 -3 -43 -4 -43 -15 0 -5 5 -7 10 -4 6 3 10 1 10 -6 0 -7 7 -4 16 7 13 16 15 16 10 2 -3 -10 -1 -18 4 -18 6 0 10 7 10 15 0 8 4 15 8 15 4 0 8 -9 8 -19 0 -11 -3 -18 -7 -15 -4 2 -9 -6 -11 -18 -2 -17 -9 -22 -23 -20 -11 2 -17 1 -13 -3 4 -4 3 -16 -2 -26 -7 -12 -7 -20 1 -24 6 -5 4 -12 -8 -22 -10 -8 -12 -12 -6 -8 9 4 11 1 7 -9 -3 -9 -11 -16 -16 -16 -6 0 -4 -8 3 -17 8 -10 9 -14 2 -10 -7 4 -18 -2 -27 -15 -12 -17 -13 -25 -3 -37 9 -12 9 -13 0 -7 -7 4 -13 2 -13 -3 0 -6 8 -11 18 -12 9 0 12 -3 6 -5 -7 -3 -10 -13 -7 -24 3 -12 -2 -20 -19 -26 -12 -4 -27 -7 -31 -6 -5 1 -6 -2 -2 -8 4 -7 12 -7 26 0 16 9 19 7 19 -12 0 -19 -2 -20 -10 -8 -11 17 -11 19 -13 -61 -1 -31 -6 -45 -13 -42 -7 2 -15 -1 -19 -7 -3 -6 -3 -10 2 -9 20 4 30 -2 28 -19 -1 -25 -15 -43 -26 -36 -17 10 -5 -21 13 -34 10 -7 18 -18 18 -24 0 -7 -6 -3 -14 8 -11 14 -17 16 -26 7 -9 -8 -7 -14 11 -24 l23 -12 -22 -8 c-25 -10 -30 -29 -7 -29 11 0 13 -5 8 -17 -5 -10 -8 -31 -8 -48 0 -16 -4 -33 -9 -36 -5 -4 -5 -13 0 -20 12 -20 14 -41 4 -58 -5 -10 -3 -29 5 -48 12 -27 12 -35 1 -46 -10 -10 -11 -18 -4 -32 8 -13 7 -16 -1 -11 -6 4 -11 1 -11 -6 0 -9 -3 -9 -10 2 -8 13 -10 12 -10 -2 0 -13 8 -18 25 -18 27 0 30 -21 6 -31 -8 -3 -15 -13 -17 -23 -2 -13 1 -15 11 -6 10 8 15 8 21 -1 4 -8 3 -9 -4 -5 -7 4 -12 1 -12 -9 0 -9 -5 -13 -10 -10 -6 3 -10 1 -10 -4 0 -6 4 -11 9 -11 5 0 11 -9 14 -20 3 -11 0 -20 -5 -20 -6 0 -5 -6 2 -15 9 -11 9 -15 1 -15 -9 0 -9 -5 -1 -21 8 -14 8 -29 2 -49 -7 -19 -7 -31 1 -39 7 -7 7 -20 0 -46 -9 -30 -9 -37 5 -45 13 -7 14 -9 3 -10 -12 0 -12 -3 -3 -12 14 -14 16 -32 3 -24 -4 3 -17 -4 -27 -15 -10 -11 -14 -20 -9 -19 22 5 33 -1 38 -20 3 -11 2 -20 -2 -20 -11 0 -12 -58 -1 -65 5 -3 10 -13 10 -21 0 -8 -5 -12 -10 -9 -6 4 -8 10 -5 15 3 5 1 11 -4 15 -6 3 -9 -12 -8 -39 1 -24 5 -42 10 -39 4 2 7 -5 7 -16 0 -12 -5 -21 -10 -21 -6 0 -5 -8 2 -20 9 -15 10 -23 2 -28 -13 -8 -13 -83 0 -75 5 4 6 -5 2 -20 -4 -16 -1 -27 7 -30 9 -4 9 -6 0 -6 -6 -1 -15 4 -18 9 -3 6 -11 10 -18 10 -6 0 1 -10 15 -21 24 -20 29 -57 5 -42 -6 4 -8 -2 -5 -15 3 -12 3 -21 -1 -20 -25 3 -31 -3 -22 -21 6 -10 7 -22 3 -26 -4 -5 -1 -5 6 -1 7 4 10 12 7 17 -7 10 18 13 27 3 3 -3 -1 -19 -10 -36 -14 -28 -13 -32 1 -43 10 -7 13 -16 7 -25 -5 -8 -6 -18 -4 -22 3 -4 1 -8 -3 -8 -5 0 -14 -9 -21 -21 -8 -12 -9 -19 -4 -15 5 3 18 -1 28 -9 12 -9 14 -14 6 -15 -7 0 -10 -4 -7 -10 3 -5 1 -10 -4 -10 -6 0 -11 -7 -11 -15 0 -8 6 -15 13 -15 8 0 8 -3 -2 -9 -12 -8 -13 -14 -3 -35 9 -20 9 -26 -1 -26 -8 0 -8 -3 -2 -8 12 -8 14 -63 3 -55 -5 2 -8 0 -8 -6 0 -5 6 -12 12 -14 10 -4 9 -6 -1 -6 -11 -1 -11 -4 -1 -16 16 -20 6 -19 -14 0 -9 9 -17 11 -21 5 -3 -5 -1 -10 5 -10 6 0 8 -5 4 -12 -4 -7 -3 -8 4 -4 15 9 15 1 2 -25 -12 -22 -5 -25 15 -5 8 7 11 17 7 21 -4 5 -1 5 6 1 7 -4 9 -13 5 -19 -9 -15 -14 -34 -17 -74 -2 -25 0 -30 13 -25 14 5 14 4 1 -13 -8 -10 -14 -21 -13 -24 1 -3 -1 -8 -4 -11 -4 -3 -3 1 2 9 6 10 4 12 -5 6 -10 -6 -9 -11 5 -21 16 -12 17 -14 2 -20 -10 -3 -17 -11 -17 -16 0 -6 8 -7 17 -4 10 4 14 4 10 0 -4 -4 -1 -14 6 -22 10 -13 9 -14 -2 -7 -11 6 -13 4 -8 -8 3 -10 3 -17 -2 -17 -17 0 -19 -50 -2 -60 20 -11 18 -16 -9 -40 -18 -15 -18 -19 -5 -24 10 -3 13 -11 9 -18 -5 -8 0 -7 11 2 17 14 18 14 5 -10 -8 -14 -13 -30 -12 -36 1 -6 -8 -16 -20 -23 -14 -7 -15 -9 -5 -6 10 3 25 -2 33 -10 11 -11 12 -15 3 -15 -7 0 -9 -3 -6 -7 4 -3 2 -12 -4 -20 -9 -9 -8 -13 0 -13 6 0 11 -5 11 -11 0 -11 -25 -40 -35 -39 -3 0 -5 -2 -5 -5 0 -3 0 -8 0 -11 0 -4 7 -1 15 6 18 15 40 3 26 -14 -6 -7 -7 -17 -3 -21 4 -5 2 -5 -5 -1 -20 11 -28 -36 -8 -50 11 -8 15 -19 10 -33 -4 -14 -2 -21 6 -21 7 0 9 -3 6 -6 -4 -4 -12 -2 -19 4 -10 8 -13 5 -13 -13 0 -13 4 -21 8 -18 4 2 6 -13 3 -34 -2 -21 1 -45 8 -53 9 -13 9 -13 -6 -2 -10 8 -18 9 -22 3 -4 -6 3 -15 15 -21 20 -11 20 -12 2 -33 -10 -11 -12 -17 -5 -13 8 5 12 1 13 -11 0 -10 2 -33 5 -51 2 -21 0 -31 -6 -27 -6 4 -7 11 -4 17 4 7 2 8 -5 4 -6 -4 -9 -11 -7 -15 10 -16 14 -61 5 -56 -5 4 -7 10 -4 15 3 5 1 11 -4 14 -10 7 -9 -6 3 -41 5 -15 12 -20 24 -16 11 3 9 0 -5 -11 -19 -14 -21 -21 -13 -42 13 -32 12 -37 0 -29 -14 9 -12 -7 5 -29 8 -10 12 -23 9 -28 -8 -13 -12 -78 -5 -73 4 2 8 -12 8 -32 1 -25 -2 -32 -8 -22 -6 10 -8 6 -7 -13 1 -16 6 -28 11 -28 12 0 5 -63 -8 -72 -6 -4 -2 -13 10 -22 11 -9 15 -16 10 -16 -15 0 -16 -43 -2 -52 8 -5 7 -8 -5 -8 -9 0 -18 5 -20 12 -3 7 -7 6 -11 -5 -3 -9 -2 -17 4 -17 11 0 39 -25 39 -35 0 -3 -5 -3 -12 1 -7 5 -9 0 -6 -14 5 -16 0 -24 -21 -32 -19 -7 -20 -9 -4 -6 13 2 24 -2 27 -11 9 -22 7 -35 -4 -28 -6 4 -7 -1 -3 -10 3 -10 0 -21 -8 -26 -12 -8 -12 -11 1 -19 13 -9 13 -10 0 -10 -10 0 -11 -3 -4 -8 14 -9 24 -72 12 -72 -5 0 -7 -18 -6 -40 2 -22 7 -40 11 -40 5 0 -1 -13 -13 -30 -23 -32 -21 -40 4 -15 9 9 17 11 21 5 3 -5 1 -10 -4 -10 -6 0 -11 -6 -11 -14 0 -8 -6 -17 -12 -19 -10 -4 -10 -6 0 -6 9 -1 7 -10 -8 -31 -12 -17 -17 -30 -12 -30 6 0 13 6 15 13 4 9 6 9 6 -1 1 -7 6 -10 11 -7 8 5 8 11 1 19 -8 9 -7 13 3 13 8 0 17 -9 20 -20 2 -10 2 -17 -1 -14 -8 9 -40 -27 -35 -40 2 -7 -2 -13 -9 -13 -11 0 -11 -3 1 -10 8 -5 11 -10 6 -10 -5 0 -3 -7 4 -15 7 -8 10 -24 7 -35 -3 -11 -1 -22 4 -25 12 -8 -1 -36 -15 -29 -6 3 -4 0 5 -8 15 -12 16 -27 6 -73 -2 -11 -2 -24 2 -30 12 -21 9 -36 -6 -31 -13 5 -14 4 -3 -9 12 -14 7 -19 -13 -16 -5 1 -6 -3 -2 -9 3 -6 10 -8 14 -6 4 3 13 -10 18 -29 9 -29 9 -33 -6 -27 -14 5 -14 4 -1 -13 14 -17 13 -18 -12 -12 -22 6 -25 4 -21 -13 4 -17 8 -18 27 -8 20 11 20 10 6 -7 -13 -17 -13 -18 1 -13 9 4 16 1 16 -8 0 -7 -6 -15 -14 -18 -17 -7 -17 -37 0 -33 17 3 16 -45 -2 -59 -8 -6 -15 -26 -16 -44 -2 -28 0 -31 10 -17 19 26 25 20 15 -14 -5 -18 -7 -35 -5 -40 3 -4 1 -10 -4 -13 -13 -9 -5 -87 10 -97 11 -7 10 -9 -5 -9 -20 0 -20 0 0 -15 12 -9 14 -14 6 -15 -7 0 -10 -5 -6 -11 3 -6 1 -22 -7 -35 -10 -20 -10 -27 1 -37 10 -10 11 -9 5 3 -5 8 -4 11 0 7 13 -12 15 -66 3 -73 -6 -4 -8 -2 -5 3 4 6 0 13 -8 17 -8 3 -17 0 -21 -6 -4 -7 -3 -8 4 -4 8 5 12 -2 12 -19 0 -14 4 -24 9 -20 19 11 23 -17 5 -31 -11 -9 -13 -13 -7 -9 9 4 11 1 7 -9 -3 -9 -11 -13 -18 -9 -6 3 -4 -2 5 -13 26 -31 30 -53 11 -63 -13 -8 -14 -10 -2 -11 11 0 11 -3 2 -12 -13 -13 -17 -42 -4 -34 4 2 8 -4 9 -14 1 -11 -2 -22 -8 -25 -14 -9 -11 -25 6 -25 11 0 13 -5 8 -18 -5 -9 -8 -30 -8 -47 0 -16 -4 -33 -9 -36 -5 -4 -5 -13 0 -20 13 -21 16 -57 5 -63 -5 -3 -7 -16 -3 -28 4 -16 2 -19 -8 -13 -9 5 -11 4 -6 -4 6 -9 11 -9 24 1 13 11 14 11 8 0 -4 -7 -2 -20 6 -29 9 -12 9 -15 1 -9 -8 4 -13 1 -13 -9 0 -10 -4 -13 -12 -8 -7 4 -5 -5 5 -20 16 -25 16 -26 0 -21 -13 4 -13 2 2 -8 20 -12 24 -55 4 -43 -5 4 -9 1 -9 -5 0 -6 -4 -9 -8 -6 -5 3 -9 -1 -9 -9 0 -8 3 -13 5 -10 3 3 11 -3 19 -13 13 -15 13 -14 3 7 -9 18 -9 22 0 19 6 -2 12 -8 12 -13 0 -6 4 -18 10 -29 6 -12 6 -16 0 -12 -5 3 -12 -4 -16 -17 -9 -34 -7 -40 8 -28 10 9 15 8 19 -3 3 -8 1 -16 -5 -18 -7 -3 -7 -12 2 -28 8 -14 14 -36 14 -50 0 -14 4 -28 10 -32 7 -5 5 -8 -5 -8 -9 0 -16 -7 -16 -15 0 -8 4 -12 9 -9 4 3 9 -5 9 -18 1 -17 3 -18 6 -5 2 9 8 15 13 12 4 -3 6 -14 3 -25 -3 -11 -9 -17 -14 -14 -5 3 -9 1 -9 -5 0 -5 8 -15 17 -20 10 -6 14 -11 10 -11 -4 0 -3 -9 3 -20 7 -14 8 -26 1 -39 -8 -14 -7 -20 4 -25 8 -3 15 -15 15 -26 0 -12 4 -18 10 -15 5 3 7 0 4 -9 -7 -18 13 -56 29 -56 7 0 6 4 -3 10 -9 6 -10 10 -3 10 6 0 14 -4 17 -9 8 -12 -19 -33 -29 -23 -5 4 -5 1 -1 -6 4 -7 12 -9 18 -6 7 5 9 0 6 -14 -4 -12 -2 -20 2 -17 5 3 14 -3 19 -14 15 -26 14 -38 -1 -23 -22 22 -29 12 -8 -10 11 -13 23 -34 27 -48 3 -14 11 -32 18 -40 7 -8 15 -24 17 -35 3 -18 4 -18 10 -3 5 12 0 25 -14 38 -12 11 -17 20 -11 20 18 0 38 -32 39 -64 1 -35 22 -96 33 -96 4 0 12 5 19 12 7 7 12 10 13 7 0 -2 2 -14 5 -27 2 -12 -1 -22 -6 -22 -7 0 -7 -6 -1 -19 6 -10 8 -20 6 -23 -2 -2 6 -5 18 -5 17 -2 19 0 7 7 -8 5 -10 10 -4 10 6 0 19 -10 30 -22 17 -19 17 -21 2 -15 -21 8 -48 -1 -48 -15 0 -6 6 -5 15 2 16 13 21 0 6 -16 -5 -5 -5 -18 -1 -29 9 -21 9 -22 14 27 2 17 21 21 34 6 5 -7 12 -24 14 -38 2 -20 8 -25 29 -23 29 2 52 -26 38 -48 -7 -12 -10 -12 -21 0 -7 8 -8 11 -2 8 6 -3 11 0 11 8 0 11 -4 12 -14 4 -7 -6 -13 -17 -13 -24 0 -8 -5 -15 -12 -17 -7 -3 -5 -7 6 -11 9 -4 15 -3 12 2 -3 4 8 8 24 7 20 -1 29 -5 25 -14 -3 -7 0 -10 5 -7 6 3 13 -1 16 -9 3 -9 15 -16 26 -16 16 0 19 -5 16 -24 -3 -13 2 -32 10 -42 11 -15 13 -15 9 -3 -4 13 -1 15 16 11 12 -3 28 -11 35 -18 10 -10 8 -14 -8 -19 -11 -3 -25 -3 -32 1 -7 4 -2 -5 11 -19 13 -15 28 -24 32 -21 5 3 9 0 9 -6 0 -6 5 -8 11 -4 8 4 8 9 0 17 -18 18 -12 28 8 15 15 -9 17 -16 10 -29 -6 -11 -5 -20 1 -24 5 -3 10 -1 10 4 0 6 5 11 11 11 5 0 7 -4 4 -10 -3 -5 -2 -10 3 -10 5 0 15 -11 22 -25 7 -13 17 -22 22 -19 4 3 8 1 8 -4 0 -6 16 -13 35 -16 26 -5 35 -12 35 -26 0 -11 -4 -20 -10 -20 -5 0 -10 5 -10 12 0 6 -3 8 -7 4 -4 -4 6 -17 22 -30 19 -16 26 -28 22 -40 -4 -10 -12 -14 -19 -10 -7 4 -4 -2 6 -14 11 -12 22 -22 25 -22 3 0 0 5 -6 11 -7 7 -8 15 -2 23 5 6 17 20 25 31 11 15 17 17 21 7 8 -21 46 -53 52 -44 7 10 27 9 37 0 4 -5 -1 -8 -12 -8 -18 -1 -18 -2 2 -19 16 -13 19 -22 12 -34 -7 -13 -5 -15 6 -11 9 3 13 15 10 28 -2 14 1 23 9 23 7 0 13 -10 13 -21 -1 -12 5 -20 12 -18 6 1 12 -5 12 -13 0 -9 10 -15 26 -15 14 0 23 4 20 9 -4 5 4 6 16 3 18 -5 19 -7 6 -10 -9 -2 -19 -10 -22 -19 -5 -13 -4 -14 9 -3 10 8 15 9 15 1 0 -6 7 -11 16 -11 8 0 12 4 9 10 -3 6 1 7 10 4 12 -5 13 -9 4 -20 -9 -11 -8 -14 4 -14 8 0 17 -6 20 -12 3 -9 10 -7 20 7 16 19 16 19 11 -5 -4 -17 -3 -21 3 -12 12 16 57 1 91 -30 12 -12 22 -17 22 -12 0 5 6 1 13 -8 13 -17 32 -19 54 -5 7 5 9 1 6 -12 -4 -16 -1 -19 17 -14 16 4 18 8 8 14 -10 7 -9 9 5 9 13 0 17 -5 12 -19 -7 -24 21 -36 34 -14 7 14 10 13 15 -5 4 -12 14 -22 21 -22 9 0 12 7 9 17 -3 10 1 8 8 -5 8 -12 17 -20 20 -16 4 3 17 -1 30 -10 12 -9 27 -16 33 -16 5 0 3 5 -5 10 -12 8 -9 10 13 10 19 0 26 -4 21 -12 -4 -7 -3 -8 5 -4 6 4 19 2 27 -5 12 -10 17 -10 27 1 10 10 9 11 -2 5 -9 -5 -12 -4 -7 3 7 12 43 -2 57 -22 4 -4 16 -3 27 3 17 9 21 7 27 -12 3 -12 9 -17 11 -11 3 7 14 9 26 6 15 -4 19 -2 14 7 -6 10 -3 9 12 0 12 -7 19 -17 16 -21 -3 -4 2 -5 10 -2 8 3 21 2 28 -2 7 -5 20 -9 28 -11 12 -1 11 1 -2 11 -23 17 -11 28 15 15 15 -8 22 -8 29 2 8 11 9 10 4 -3 -3 -10 -1 -20 4 -23 4 -3 10 -1 12 5 2 7 14 7 36 1 17 -5 32 -7 32 -3 0 4 20 8 44 10 33 2 45 -1 50 -14 6 -15 8 -15 28 2 12 11 18 13 13 5 -6 -10 -2 -12 14 -6 14 4 21 2 21 -6 0 -7 3 -9 7 -6 3 4 13 -1 21 -11 10 -12 9 -9 -2 10 -17 29 -6 47 14 23 15 -18 34 -20 24 -3 -5 9 -2 9 9 -1 9 -7 17 -9 17 -4 0 12 60 11 60 -2 0 -5 5 -2 11 8 7 12 15 15 22 9 16 -12 57 -13 57 -1 0 5 16 3 35 -5 33 -14 39 -13 36 7 -1 5 3 6 9 2 6 -3 8 -11 5 -16 -4 -5 -1 -9 4 -9 6 0 11 4 11 9 0 6 10 8 23 5 44 -10 82 -11 99 -3 11 6 22 4 32 -6 9 -10 17 -11 21 -5 4 6 12 8 18 4 7 -3 4 1 -5 9 -16 13 -14 14 17 12 19 -1 42 -8 50 -15 12 -10 15 -10 15 1 0 11 2 11 10 -1 5 -8 10 -10 10 -4 0 19 40 25 47 7 5 -12 9 -11 20 8 14 24 14 24 10 2 -3 -13 -1 -26 4 -29 5 -3 8 0 7 7 -3 12 8 14 43 10 5 0 7 -5 4 -11 -3 -6 1 -7 9 -4 9 3 13 10 10 15 -5 9 51 3 68 -7 4 -3 8 2 8 10 0 20 10 20 35 2 24 -16 34 -17 57 -5 11 6 18 5 20 -3 3 -9 12 -7 32 6 16 10 25 13 22 7 -5 -7 2 -11 19 -11 15 0 24 4 20 10 -10 16 11 12 25 -5 17 -20 30 -19 30 3 0 13 2 14 9 4 4 -8 10 -13 12 -12 12 5 38 -14 32 -24 -3 -6 -2 -7 3 -3 5 5 10 13 10 18 1 5 2 14 3 19 2 17 26 6 31 -14 5 -17 7 -17 20 -4 17 16 101 19 112 3 5 -6 8 -4 8 4 0 11 5 10 20 -4 18 -16 20 -16 26 -1 4 11 13 14 33 9 14 -3 29 -11 33 -17 5 -7 8 -5 8 6 0 9 5 20 11 24 8 4 9 -1 5 -17 -3 -13 -3 -18 0 -11 3 6 14 12 24 12 10 0 21 6 24 13 3 6 3 1 0 -13 -5 -24 -4 -24 10 -6 10 13 21 16 33 11 10 -5 23 -7 28 -5 32 10 95 6 106 -6 6 -8 16 -11 21 -8 6 4 6 9 -2 14 -8 5 -4 9 10 13 16 4 24 1 27 -14 6 -21 18 -25 29 -7 5 7 3 8 -7 3 -12 -8 -12 -6 0 9 11 13 16 14 22 4 4 -6 6 -15 4 -18 -2 -4 4 -7 13 -7 18 0 44 21 37 29 -3 3 2 5 10 5 8 0 15 -7 15 -14 0 -14 30 -14 41 0 3 5 23 1 44 -7 48 -20 66 -20 40 0 -22 18 -24 18 65 -2 24 -5 24 -5 5 10 -19 15 -19 16 8 6 15 -5 27 -6 27 -3 0 4 5 2 12 -5 7 -7 19 -12 28 -12 13 0 13 2 0 10 -8 5 -11 12 -7 16 4 4 13 2 19 -4 14 -14 62 -16 54 -3 -4 5 3 7 15 4 11 -3 18 -11 15 -18 -2 -6 0 -18 5 -26 7 -12 9 -12 10 1 1 8 1 18 0 23 0 4 6 7 15 7 8 0 12 4 9 10 -3 6 1 7 10 4 10 -4 15 -14 12 -25 -3 -11 -1 -17 3 -14 5 3 10 2 13 -2 2 -5 3 -3 1 3 -4 19 36 37 52 23 11 -9 15 -8 20 6 5 13 9 14 15 3 7 -11 11 -10 19 2 9 13 12 13 21 -3 6 -9 14 -15 20 -12 5 4 9 2 9 -3 0 -5 7 -9 15 -9 20 0 19 7 -2 24 -20 16 4 6 26 -11 23 -18 42 -15 51 7 5 12 9 16 9 8 1 -9 5 -10 14 -4 17 13 42 10 42 -4 0 -7 5 -13 10 -14 6 0 17 -6 25 -12 12 -9 13 -9 3 3 -18 20 -16 33 3 26 9 -3 21 -3 27 1 17 10 47 11 53 1 3 -4 10 -6 15 -3 5 4 9 1 9 -5 0 -6 5 -8 10 -5 6 3 10 1 10 -4 0 -19 25 -12 38 10 10 15 16 18 26 10 7 -6 17 -7 21 -3 5 4 5 2 2 -5 -11 -18 15 -21 44 -5 30 18 59 10 59 -14 0 -16 -2 -16 -20 1 -11 10 -22 16 -25 13 -3 -3 6 -13 20 -22 24 -16 26 -16 35 8 5 13 14 27 21 32 7 4 10 3 6 -3 -4 -6 0 -16 8 -23 13 -11 14 -10 10 2 -4 11 2 14 27 12 18 -1 39 2 45 8 10 8 13 6 13 -5 0 -10 12 -16 35 -19 19 -2 35 0 35 5 0 5 14 7 31 3 29 -5 30 -5 18 12 -13 16 -12 16 6 1 27 -21 53 -30 60 -20 2 5 -5 12 -18 16 -14 4 -17 8 -9 12 7 3 21 -2 32 -12 17 -15 19 -15 29 2 8 14 10 14 11 3 0 -17 51 -24 61 -8 4 6 18 8 33 4 31 -8 42 -7 39 4 -1 4 8 5 20 2 18 -5 19 -7 5 -10 -10 -2 -18 -7 -18 -12 0 -4 9 -6 20 -3 11 3 20 9 20 15 0 5 8 4 19 -2 29 -15 39 -12 16 7 l-20 16 20 -8 c11 -4 28 -8 38 -9 9 0 17 -5 17 -10 0 -5 9 -1 20 9 21 19 22 18 24 -30 1 -16 6 -28 11 -26 6 1 9 8 7 13 -2 6 5 19 14 29 20 23 49 26 41 4 -4 -8 -1 -17 5 -21 6 -4 8 -3 5 3 -10 17 17 45 36 37 9 -3 17 -9 17 -13 0 -3 18 -6 40 -6 27 0 44 7 54 20 15 20 15 20 16 -3 0 -20 4 -22 23 -16 35 11 81 11 89 0 5 -7 8 -3 8 8 0 15 3 16 15 6 8 -7 22 -10 30 -6 8 3 15 0 15 -6 0 -7 4 -7 14 1 9 8 21 8 39 2 14 -5 28 -7 32 -3 4 4 5 -6 2 -23 -5 -27 -4 -28 9 -11 7 10 11 22 9 27 -3 4 -1 10 5 14 5 3 10 1 10 -4 0 -6 5 -11 11 -11 6 0 8 7 5 16 -5 13 -3 14 7 6 7 -6 22 -11 32 -11 46 -1 86 -14 81 -27 -3 -8 0 -11 10 -7 9 3 20 17 25 31 7 19 13 22 21 14 14 -14 32 -16 24 -4 -3 5 1 9 9 9 8 0 15 -3 15 -6 0 -4 9 -12 20 -18 16 -11 18 -10 14 2 -4 10 0 15 16 15 11 0 19 -4 15 -9 -6 -11 62 -27 72 -17 4 3 -6 6 -21 6 -24 0 -26 2 -12 15 17 17 30 20 21 5 -4 -6 7 -10 24 -10 17 0 31 -4 31 -10 0 -5 5 -10 11 -10 6 0 8 8 4 19 -5 17 -2 17 30 7 19 -6 35 -15 35 -20 0 -4 7 -2 17 5 15 13 15 12 4 -9 -6 -12 -9 -22 -7 -22 3 0 12 12 20 27 8 16 15 23 16 17 0 -6 15 -11 33 -12 l32 -1 -25 14 -25 14 32 -2 c17 -1 31 -4 31 -7 -1 -17 3 -23 10 -13 6 9 17 10 38 4 16 -4 38 -5 49 0 28 11 87 11 80 0 -12 -21 15 -20 32 1 10 13 25 24 33 26 10 1 9 -3 -4 -13 -17 -13 -18 -15 -3 -15 9 0 17 -5 17 -11 0 -5 4 -8 9 -5 5 3 11 -1 15 -9 6 -18 26 -20 26 -3 0 6 -3 8 -7 5 -8 -9 -33 25 -26 36 3 4 11 3 18 -3 15 -12 36 -10 48 5 4 6 11 4 17 -5 8 -12 10 -12 10 5 0 17 2 18 10 5 9 -13 12 -13 21 3 9 16 11 16 26 1 15 -15 18 -14 34 7 17 23 17 23 36 3 10 -11 17 -18 16 -15 -4 7 18 31 29 31 5 0 6 -4 3 -10 -10 -17 7 -11 22 7 9 11 12 12 7 3 -6 -12 -4 -13 7 -3 14 14 53 18 45 5 -3 -5 1 -9 9 -9 7 0 12 8 10 19 -4 20 6 23 22 7 8 -8 15 -6 25 10 16 26 31 27 49 4 12 -16 12 -17 -2 -6 -13 10 -16 10 -16 -1 0 -8 7 -13 16 -11 9 1 16 11 15 24 0 19 8 23 34 20 4 -1 6 -6 4 -13 -1 -6 5 -2 13 8 8 11 15 23 15 26 0 4 7 7 15 7 16 0 28 -23 19 -40 -3 -7 1 -4 9 5 8 10 16 15 19 12 3 -2 8 4 11 15 3 14 1 18 -9 14 -8 -3 -14 -1 -14 5 0 15 30 8 41 -9 7 -12 9 -12 9 1 0 12 2 12 9 1 6 -9 11 -10 15 -2 14 22 33 11 31 -19 -1 -16 2 -27 6 -24 10 6 8 46 -4 61 -14 19 0 31 28 25 16 -3 25 0 25 8 0 8 9 10 28 5 26 -6 26 -6 7 9 -12 9 -15 15 -7 16 7 0 10 5 6 12 -4 7 -3 8 5 4 6 -4 9 -11 6 -16 -3 -4 6 -3 19 3 13 7 22 16 19 21 -4 5 7 7 24 3 25 -5 30 -3 29 11 0 10 7 18 19 18 11 1 25 2 31 3 7 1 11 9 10 18 0 10 6 18 14 18 8 1 14 6 13 12 -1 5 10 9 24 7 32 -3 57 7 61 26 3 11 -2 10 -17 -4 -12 -11 -21 -15 -21 -10 0 5 13 18 29 29 16 10 27 23 25 27 -3 4 -1 8 5 8 5 0 14 -8 20 -17 9 -17 10 -17 16 -1 4 10 13 18 20 18 21 0 36 25 23 38 -16 16 5 16 33 2 11 -6 19 -7 19 -1 0 5 -7 11 -15 15 -8 3 -15 13 -14 23 0 17 1 17 7 1 5 -12 11 -15 22 -8 9 6 20 5 30 -3 8 -6 6 -1 -5 12 -11 14 -15 21 -9 18 7 -4 14 0 17 7 3 8 1 17 -6 20 -7 3 -6 5 3 4 24 -3 77 35 72 52 -4 12 -2 13 9 3 7 -7 19 -13 27 -13 12 0 12 3 1 17 -12 15 -12 16 1 8 12 -6 12 -5 4 4 -7 7 -9 21 -7 31 4 15 8 16 18 7 7 -7 10 -16 7 -21 -3 -5 0 -6 6 -2 8 5 9 13 3 25 -12 22 1 43 22 35 9 -3 14 -10 11 -15 -3 -5 2 -6 11 -2 10 3 21 0 27 -8 6 -10 7 -7 3 10 -6 21 -4 23 14 18 12 -3 19 -1 15 5 -3 5 -17 7 -29 4 -13 -3 -27 -2 -30 4 -3 5 2 10 12 10 11 0 24 11 31 28 9 21 10 22 6 3 -4 -16 -2 -21 5 -17 6 4 11 12 11 18 0 6 8 17 18 25 16 14 16 14 -3 8 -20 -6 -20 -6 0 13 20 19 20 19 35 -7 8 -14 13 -33 11 -41 -2 -8 -1 -13 1 -10 2 3 10 13 18 23 10 14 11 17 0 15 -7 -2 -19 11 -26 29 -11 27 -11 31 1 29 8 -1 18 -5 21 -9 4 -4 12 -7 18 -7 6 0 1 7 -10 15 -26 18 -22 60 6 62 13 1 17 -4 15 -22 -1 -14 1 -22 5 -20 12 7 9 59 -3 67 -6 4 -8 11 -3 15 5 4 11 2 13 -4 3 -7 17 -13 31 -12 27 0 27 0 4 10 -18 7 -22 14 -17 31 12 37 37 61 48 46 6 -10 8 -9 5 2 -3 8 1 26 8 39 7 14 10 29 7 34 -4 6 -1 7 7 2 10 -6 12 -4 7 9 -6 14 -3 17 8 12 20 -7 38 35 21 47 -6 5 4 7 23 4 26 -3 31 -1 20 7 -18 14 -20 59 -3 69 8 4 14 13 14 18 0 6 -4 7 -10 4 -6 -3 -7 1 -4 9 6 17 25 17 36 1 5 -6 8 -6 8 2 0 6 -5 15 -10 18 -6 4 -8 11 -4 16 3 5 10 7 15 4 5 -4 9 -2 9 4 0 5 -4 13 -10 16 -17 10 -11 25 8 18 14 -5 15 -3 5 8 -7 7 -13 19 -13 27 0 10 3 10 16 -2 19 -20 21 -20 21 -1 0 8 -5 15 -11 15 -5 0 -1 6 10 14 15 12 17 17 7 27 -16 16 -17 29 -3 29 6 0 9 -5 8 -11 -2 -6 2 -13 9 -16 8 -3 9 6 3 31 -4 19 -6 37 -4 39 3 3 11 39 13 60 1 4 7 7 15 7 9 0 12 8 8 26 -3 15 -1 25 4 22 11 -7 35 17 27 26 -4 3 0 6 7 6 7 0 10 3 7 6 -4 4 -12 2 -20 -4 -10 -8 -13 -6 -13 8 0 21 22 35 31 20 4 -6 11 -10 18 -10 6 0 1 7 -11 16 -14 9 -22 26 -22 44 0 15 -6 31 -12 34 -7 3 0 4 15 2 26 -3 27 -2 11 15 -14 16 -15 21 -3 36 9 11 10 14 2 9 -19 -11 -15 5 4 19 14 11 15 15 4 29 -7 8 -11 21 -8 28 4 8 6 7 6 -4 1 -10 5 -18 10 -18 6 0 8 9 6 20 -2 11 0 20 5 20 4 0 6 9 3 21 -4 16 -8 17 -14 7 -6 -9 -9 -6 -9 10 0 13 4 21 8 18 5 -3 9 1 9 9 0 8 -5 15 -10 15 -5 0 -4 6 2 14 9 11 9 15 -1 19 -7 3 -4 6 7 6 17 1 17 3 5 11 -13 8 -12 10 3 10 17 0 17 1 2 16 -9 9 -15 29 -13 49 2 30 4 32 21 23 14 -7 22 -6 31 3 7 8 7 10 0 6 -6 -4 -19 0 -29 7 -17 12 -17 14 4 35 22 22 21 41 -2 41 -9 0 -9 -2 0 -8 7 -4 9 -13 4 -21 -6 -9 -11 -10 -15 -2 -4 6 -12 9 -17 6 -5 -4 -4 6 3 20 10 22 9 28 -3 37 -11 7 -9 9 8 5 15 -3 20 -1 16 9 -2 7 -10 12 -16 10 -7 -1 -9 -1 -4 1 4 3 4 10 1 15 -4 7 -2 8 4 4 7 -4 16 -5 22 -1 13 8 0 37 -15 32 -6 -3 -12 1 -12 9 0 8 6 13 14 10 10 -4 9 1 -3 18 -10 16 -12 26 -5 31 6 3 11 11 11 16 0 6 -4 8 -8 5 -4 -2 -9 4 -9 15 -2 22 8 24 25 7 9 -9 12 -9 12 0 0 7 -5 12 -11 12 -5 0 -7 5 -4 10 4 6 1 9 -5 8 -7 -2 -14 5 -15 15 -2 9 2 17 8 17 7 0 3 7 -7 15 -24 18 -12 34 13 18 11 -7 22 -9 25 -6 3 4 -4 11 -16 17 -12 6 -23 17 -26 25 -3 8 0 11 7 7 16 -10 14 0 -5 18 -14 15 -14 16 2 16 16 0 16 1 -2 16 -10 8 -13 12 -5 8 11 -5 13 -3 8 10 -4 10 -7 20 -7 22 0 3 -6 2 -12 -1 -7 -4 -5 0 4 8 10 8 18 22 18 32 0 11 5 15 15 11 8 -3 15 -1 15 4 0 6 -6 10 -14 10 -8 0 -16 7 -19 14 -4 10 -1 13 8 10 9 -4 13 1 12 15 -1 14 -5 17 -11 11 -23 -23 -27 -8 -5 17 13 14 19 24 14 20 -6 -3 -16 3 -23 14 -7 10 -9 19 -5 18 22 -4 24 3 7 22 -11 13 -13 19 -5 17 7 -2 15 5 16 15 2 9 -1 14 -6 11 -9 -5 -6 23 6 63 3 7 -3 10 -13 7 -15 -5 -15 -4 1 9 12 10 14 16 6 19 -7 2 -13 12 -15 22 -2 13 1 15 11 6 10 -8 13 -5 11 14 -1 18 -4 22 -13 14 -9 -7 -9 -3 0 21 6 16 14 28 19 25 4 -3 5 2 2 10 -3 8 -12 17 -20 20 -11 4 -12 10 -5 25 6 10 7 22 3 26 -4 4 3 5 16 2 19 -4 21 -3 11 9 -6 7 -15 11 -20 9 -4 -3 -6 4 -4 17 3 12 -1 25 -7 29 -8 5 -4 14 13 29 13 12 19 19 13 16 -6 -3 -16 6 -22 19 -7 15 -8 25 -2 25 6 0 10 -4 10 -10 0 -5 5 -10 10 -10 14 0 8 23 -10 37 -12 10 -12 12 -1 13 10 0 11 3 2 14 -8 10 -8 16 2 25 8 6 18 7 23 3 5 -4 1 3 -9 15 -19 22 -19 60 0 56 19 -4 8 27 -15 43 -18 12 -20 18 -10 29 39 43 39 43 16 59 -15 11 -18 16 -8 16 11 1 11 3 -3 11 -9 6 -15 15 -12 20 4 5 11 6 17 3 6 -4 8 -2 4 4 -3 6 2 16 11 22 16 10 15 10 -4 5 -19 -5 -21 -3 -14 22 5 19 3 35 -6 50 -9 13 -10 23 -4 27 6 4 8 13 4 21 -3 10 1 15 13 15 16 0 17 2 4 10 -13 8 -12 11 4 23 19 14 19 15 -10 30 -20 11 -24 16 -11 17 19 0 24 20 5 20 -9 0 -9 3 1 9 11 7 12 13 4 23 -10 14 -10 91 2 120 4 10 14 15 23 12 9 -3 7 1 -6 8 -12 8 -19 17 -16 21 4 4 2 7 -6 7 -10 0 -10 4 1 17 8 9 10 14 4 11 -6 -4 -10 13 -10 43 -1 27 3 49 7 49 4 0 8 7 8 15 0 8 -4 15 -9 15 -5 0 -7 9 -4 20 4 16 8 18 19 9 8 -7 17 -9 20 -6 9 8 -35 29 -46 22 -17 -11 -11 7 7 20 15 11 16 15 3 31 -12 14 -12 18 -2 22 10 3 10 7 1 18 -9 11 -8 15 5 20 14 5 14 9 1 34 -19 36 -20 62 -2 39 7 -8 21 -18 32 -22 19 -7 19 -6 -1 10 -26 22 -38 53 -21 53 8 0 8 3 -2 9 -8 5 -14 25 -15 44 -1 19 2 33 6 31 4 -3 6 4 5 15 -1 12 -6 17 -15 13 -10 -3 -13 0 -10 9 3 8 14 14 26 13 l21 0 -21 21 c-20 21 -34 70 -17 60 9 -6 22 43 14 55 -3 4 -1 20 5 34 6 18 6 26 -1 26 -6 0 -9 18 -6 45 2 25 0 48 -5 51 -4 3 -8 12 -8 20 0 8 4 12 10 9 7 -4 7 3 0 20 -13 33 -13 44 0 25 5 -8 10 -10 10 -4 0 6 -7 17 -15 24 -22 18 -19 33 4 20 25 -13 44 -13 36 0 -4 6 -11 8 -16 5 -5 -4 -9 1 -9 10 0 10 -5 13 -12 9 -8 -5 -7 0 2 11 8 10 10 16 3 12 -8 -5 -11 -1 -10 12 0 11 5 17 9 15 4 -3 8 2 8 11 0 9 -5 13 -11 9 -8 -5 -8 -1 0 14 14 27 14 32 -2 27 -8 -4 -12 5 -12 25 -1 16 3 30 8 30 5 0 7 -7 4 -15 -8 -19 13 -31 24 -14 5 8 9 19 9 24 0 6 -5 3 -10 -5 -8 -13 -10 -13 -10 1 0 9 -7 19 -15 23 -23 9 -18 25 7 21 16 -4 19 -2 10 7 -15 15 -16 42 -2 33 6 -3 10 -2 10 3 0 14 -26 33 -33 25 -4 -3 -7 -1 -7 6 0 8 7 11 15 7 12 -4 15 3 13 34 -1 25 -5 37 -12 33 -6 -3 -8 -3 -4 2 4 4 3 13 -2 20 -7 8 -5 12 5 12 8 0 15 -4 15 -9 0 -4 8 -8 17 -8 14 0 13 3 -5 16 -12 8 -20 19 -17 24 3 5 1 11 -5 15 -6 4 -8 10 -5 15 3 5 1 11 -5 15 -20 12 1 25 23 14 21 -10 21 -9 -1 9 l-24 18 24 17 c22 17 22 17 1 7 -13 -6 -23 -9 -23 -8 0 2 4 17 9 35 7 25 6 33 -6 37 -11 5 -12 10 -5 19 7 8 7 18 2 27 -10 17 -4 30 13 26 7 -1 9 -1 5 1 -14 8 -8 33 7 33 19 0 19 14 -1 34 -14 15 -14 16 2 16 10 0 14 3 10 8 -4 4 -13 7 -19 7 -7 0 -12 13 -13 28 -1 18 3 26 11 23 12 -4 14 22 2 40 -4 7 -5 32 -3 57 2 26 0 44 -4 42 -4 -3 -10 4 -13 15 -4 17 -3 18 16 8 20 -10 21 -9 9 5 -7 8 -14 26 -16 39 -1 13 -6 30 -11 37 -5 9 0 20 16 33 15 11 18 16 6 12 -13 -5 -16 -2 -11 10 3 9 1 16 -5 16 -8 0 -9 5 -1 19 12 24 13 44 1 37 -5 -4 -8 2 -7 11 2 9 8 19 14 21 7 2 12 10 12 18 0 9 5 12 12 8 7 -4 8 -3 4 4 -4 7 -13 12 -21 12 -7 0 -16 7 -19 16 -3 8 -2 12 4 9 6 -3 10 -1 10 5 0 7 7 5 16 -4 25 -25 30 -19 6 7 -24 26 -29 47 -10 47 7 0 2 7 -10 16 -22 15 -23 17 -6 36 15 15 16 21 5 27 -9 6 -10 11 -3 15 6 4 8 14 5 23 -4 10 -2 14 4 10 6 -4 13 0 16 8 4 10 1 12 -11 8 -9 -3 -14 -3 -10 2 4 4 2 15 -5 23 -9 13 -9 14 1 8 15 -9 15 -1 2 25 -8 14 -7 19 1 19 8 0 9 4 0 13 -7 10 -7 17 0 24 8 8 8 13 0 17 -8 5 -8 13 0 29 9 16 9 22 0 25 -16 5 -14 22 3 22 22 0 17 59 -6 73 -22 14 -24 29 -3 21 9 -4 15 0 15 7 0 11 3 11 11 -1 15 -22 0 29 -17 56 -7 12 -10 24 -7 28 15 14 12 62 -4 74 -13 9 -14 15 -5 24 16 16 15 45 0 51 -7 3 -4 6 7 6 17 1 17 3 5 11 -13 8 -12 10 3 10 17 0 17 1 2 16 -21 22 -16 69 8 68 25 -2 21 9 -10 28 -28 17 -28 17 -4 18 20 0 21 2 11 15 -7 8 -16 12 -21 9 -12 -7 -11 3 2 28 8 16 8 23 -2 30 -10 7 -8 8 8 5 19 -4 21 -2 13 13 -7 13 -6 20 2 22 8 3 8 9 -1 24 -10 14 -11 15 -7 2 3 -10 1 -20 -4 -23 -6 -4 -10 -1 -10 6 0 7 -3 9 -6 6 -4 -4 -1 -13 6 -22 7 -8 8 -15 2 -15 -15 0 -24 32 -12 44 12 12 14 39 2 32 -5 -3 -9 0 -10 7 0 7 -3 28 -6 47 -5 28 -4 31 4 13 5 -13 14 -23 20 -23 14 0 13 7 -7 36 -14 21 -14 30 -4 46 11 17 10 18 -9 8 -17 -9 -20 -8 -20 12 0 17 3 19 9 9 7 -10 10 -10 16 -1 5 8 1 16 -9 22 -13 7 -14 13 -5 30 10 18 9 20 -6 14 -13 -4 -16 -2 -11 9 3 8 1 15 -5 15 -6 0 -8 4 -5 9 4 5 0 12 -6 14 -8 3 -5 6 6 6 16 1 16 3 5 17 -10 13 -10 17 2 25 11 7 10 9 -5 9 -16 0 -16 2 -6 16 8 8 9 14 4 13 -20 -3 -32 2 -38 17 -5 14 -4 15 9 4 9 -8 15 -8 15 -2 0 6 -4 13 -10 17 -5 3 -7 12 -4 20 7 17 -24 65 -42 65 -14 0 -16 3 -17 43 -1 17 4 21 21 20 12 -2 22 2 22 7 0 6 -7 10 -15 10 -9 0 -25 9 -37 20 -18 17 -19 21 -7 37 8 9 10 14 4 11 -5 -3 -18 4 -27 17 -17 22 -17 23 4 17 20 -5 20 -4 7 10 -7 9 -18 15 -23 15 -5 -1 -11 4 -14 12 -2 8 -1 11 4 8 5 -2 14 1 21 8 10 10 9 15 -4 19 -9 4 -18 4 -21 1 -3 -3 1 -5 8 -5 7 0 11 -2 8 -5 -13 -13 -35 7 -30 27 3 13 1 19 -5 15 -6 -4 -14 5 -18 21 -3 15 -18 37 -33 49 -15 13 -20 21 -12 18 11 -4 16 1 17 15 2 18 0 18 -20 5 -22 -14 -22 -13 -21 25 0 27 -4 40 -12 40 -8 0 -11 6 -7 17 4 11 3 14 -5 9 -7 -4 -10 -2 -6 7 3 8 -2 20 -11 27 -8 7 -15 9 -15 6 0 -4 -6 -1 -14 6 -8 7 -12 16 -10 20 6 10 -26 39 -37 32 -12 -7 -39 14 -39 30 0 6 4 5 9 -3 5 -8 22 -15 38 -17 27 -3 28 -3 5 10 -12 6 -19 15 -16 19 4 4 -1 7 -11 7 -14 0 -15 3 -5 15 11 13 10 14 -5 9 -10 -4 -21 -1 -26 7 -8 12 -11 12 -19 -1 -5 -8 -10 -10 -10 -4 0 6 10 19 23 28 14 11 16 15 5 12 -9 -3 -19 2 -22 10 -3 8 -12 14 -21 14 -8 0 -15 9 -15 20 0 11 -5 19 -12 18 -7 -2 -12 2 -13 9 0 6 -3 15 -7 19 -4 3 -6 -3 -3 -14 2 -12 1 -24 -3 -26 -4 -3 -9 7 -10 21 -3 34 -21 55 -41 48 -8 -3 -12 -3 -9 1 4 4 2 16 -4 28 -7 11 -12 25 -13 30 0 13 -25 20 -25 7 0 -6 -5 -11 -11 -11 -5 0 -7 4 -4 10 3 6 -1 7 -9 4 -9 -3 -16 -1 -16 6 0 6 -4 9 -9 6 -5 -3 -12 1 -15 10 -3 8 -11 12 -17 8 -8 -4 -9 -3 -5 5 4 6 12 9 17 6 14 -9 11 5 -5 21 -8 8 -21 14 -30 14 -8 0 -18 5 -21 10 -4 6 -11 7 -17 4 -6 -4 -8 -2 -5 3 4 6 -2 22 -13 34 -18 22 -19 22 -20 5 0 -19 0 -19 -13 -1 -9 12 -19 15 -28 10 -8 -5 -11 -5 -7 0 4 4 -7 19 -25 32 -17 13 -31 26 -29 29 1 2 -4 12 -13 20 -8 9 -15 11 -15 6 0 -6 -10 -8 -22 -4 -21 5 -21 6 -2 14 15 7 14 8 -8 5 -23 -4 -25 -2 -18 18 6 16 4 22 -5 22 -8 0 -12 -4 -9 -9 3 -4 3 -12 -1 -18 -8 -13 -37 0 -31 15 2 7 -9 22 -24 34 -33 23 -40 26 -40 11 0 -5 3 -9 8 -8 4 2 18 -5 31 -14 22 -15 23 -18 7 -24 -11 -4 -22 0 -32 14 -8 11 -27 23 -43 27 -20 4 -31 14 -35 31 -6 22 -9 24 -22 13 -12 -10 -12 -14 -2 -22 9 -6 8 -7 -5 -3 -11 3 -30 9 -44 12 l-26 7 29 13 29 14 -28 -4 c-15 -2 -31 2 -35 9 -4 6 -15 14 -25 18 -15 6 -16 4 -7 -13 7 -14 7 -20 0 -20 -5 0 -10 5 -10 12 0 6 -3 9 -6 5 -9 -9 -52 36 -46 48 4 6 -6 2 -21 -8 -24 -15 -30 -16 -42 -4 -8 8 -13 16 -12 18 1 2 0 3 -2 2 -2 -1 -12 2 -22 8 -15 8 -19 6 -20 -8 0 -15 -2 -15 -7 -3 -4 8 -17 15 -29 14 -13 -1 -23 3 -23 8 0 6 -7 7 -16 4 -8 -3 -13 -2 -10 3 9 13 -20 21 -32 9 -8 -8 -16 1 -29 31 -19 43 -39 58 -23 17 12 -32 -1 -42 -18 -14 -7 13 -11 16 -8 7 3 -11 -1 -16 -12 -15 -10 0 -16 -5 -14 -14 3 -11 0 -11 -15 3 -15 13 -22 14 -33 4 -10 -9 -11 -9 -6 1 9 15 -9 16 -37 0 -20 -10 -21 -10 -8 5 8 10 9 17 3 17 -6 0 -14 -4 -17 -10 -10 -17 -28 -11 -21 6 5 14 4 15 -8 5 -10 -8 -16 -9 -21 -1 -3 6 -11 8 -16 5 -20 -13 -48 -13 -53 1 -3 8 -13 14 -21 14 -9 0 -13 -4 -10 -10 3 -5 2 -10 -4 -10 -5 0 -13 5 -16 10 -4 7 -13 7 -26 0 -11 -6 -25 -8 -31 -4 -16 10 -69 11 -75 2 -2 -5 1 -8 8 -8 7 0 9 -3 6 -7 -4 -3 -16 2 -27 12 -13 11 -20 14 -20 6 0 -8 -7 -10 -19 -6 -11 3 -22 2 -25 -4 -8 -13 -41 -7 -40 7 2 29 5 33 16 26 7 -5 8 -3 3 6 -6 10 -10 10 -19 -2 -6 -8 -17 -13 -24 -10 -7 2 -11 -2 -10 -10 2 -7 -3 -12 -11 -10 -8 2 -18 -3 -22 -10 -6 -9 -9 -5 -10 12 0 17 -3 20 -7 10 -8 -17 -32 -25 -32 -11 0 5 -13 9 -30 9 -18 -1 -27 -5 -23 -12 3 -6 -5 0 -20 13 l-25 23 2 -25 c3 -24 2 -25 -20 -11 -16 11 -28 13 -41 6 -21 -11 -52 -10 -72 3 -9 5 -12 4 -8 -3 5 -6 0 -8 -13 -5 -11 3 -17 9 -14 14 3 5 0 9 -6 9 -6 0 -13 -7 -16 -15 -5 -13 -10 -13 -40 0 -24 10 -36 11 -40 3 -4 -7 -2 -8 4 -4 8 5 10 2 6 -9 -5 -13 -8 -13 -18 -1 -16 20 -63 29 -69 13 -6 -16 -63 -21 -73 -6 -5 8 -3 9 7 4 11 -6 12 -5 2 5 -10 11 -16 10 -31 -8 -11 -12 -22 -19 -26 -15 -9 10 -7 25 3 18 5 -3 12 -1 15 3 3 5 -5 9 -17 8 -12 -1 -21 -7 -20 -13 3 -13 -66 -23 -73 -11 -3 5 -10 6 -15 3 -5 -4 -9 -1 -9 6 0 8 -4 8 -12 2 -7 -6 -24 -9 -38 -8 -14 1 -31 -2 -38 -8 -7 -5 -15 -7 -19 -3 -3 3 -1 6 6 6 7 0 10 4 6 10 -3 5 -13 6 -22 3 -11 -4 -14 -3 -9 5 4 7 2 12 -3 12 -6 0 -11 -5 -11 -11 0 -5 -5 -7 -11 -4 -6 4 -16 -1 -23 -11 -13 -17 -14 -16 -25 4 -6 12 -17 22 -24 22 -8 0 -6 -4 3 -10 13 -9 13 -11 1 -19 -17 -11 -43 -3 -35 10 3 5 -4 9 -16 9 -12 0 -18 -4 -15 -10 3 -5 -1 -10 -10 -10 -9 0 -14 4 -11 9 3 5 -3 11 -14 14 -11 3 -23 0 -27 -5 -3 -7 -1 -8 5 -4 7 4 12 2 12 -3 0 -14 -46 -14 -72 0 -16 9 -19 8 -13 -2 6 -9 3 -10 -11 -4 -17 7 -68 9 -114 4 -8 -1 -24 2 -34 7 -13 5 -17 4 -12 -4 3 -6 2 -13 -4 -17 -5 -3 -10 3 -10 15 0 12 -4 18 -10 15 -5 -3 -19 -1 -30 5 -17 9 -20 8 -21 -12 0 -13 -3 -17 -6 -10 -4 10 -10 9 -30 -4 -18 -11 -23 -12 -17 -3 6 11 5 12 -7 2 -17 -14 -39 0 -39 23 0 7 -5 16 -12 20 -6 4 -8 3 -5 -4 4 -5 2 -21 -3 -34 l-11 -23 5 23 c3 18 2 21 -9 12 -7 -6 -19 -8 -28 -4 -8 3 -18 1 -22 -5 -3 -6 -11 -11 -16 -11 -6 0 -8 3 -6 8 3 4 -7 8 -21 8 -15 1 -21 -1 -14 -3 17 -6 15 -23 -3 -23 -9 0 -15 9 -15 25 0 14 -4 25 -10 25 -5 0 -9 -5 -7 -11 3 -15 -51 -31 -59 -18 -3 6 -12 2 -21 -8 -8 -10 -11 -12 -7 -4 6 11 0 13 -27 8 -21 -4 -29 -4 -20 2 8 5 9 11 3 15 -6 3 -13 2 -17 -4 -4 -6 -10 -8 -15 -5 -5 3 -14 -3 -20 -12 -10 -16 -11 -16 -7 3 4 17 1 20 -14 17 -11 -3 -19 -10 -19 -15 0 -5 5 -6 12 -2 7 4 8 3 4 -4 -4 -6 -13 -9 -21 -6 -8 4 -13 10 -10 14 6 10 -23 35 -32 26 -3 -3 -1 -6 6 -6 9 0 9 -3 -1 -14 -9 -9 -20 -11 -35 -5 -17 6 -23 5 -23 -5 0 -9 -7 -12 -20 -9 -11 3 -17 10 -13 17 3 6 3 8 -2 4 -4 -4 -17 -1 -29 7 -30 22 -43 18 -17 -4 13 -12 18 -22 11 -26 -5 -3 -10 -2 -10 3 0 12 -63 10 -72 -3 -5 -6 -8 -3 -8 6 0 9 -7 20 -16 23 -8 3 -12 2 -9 -4 3 -6 1 -10 -5 -10 -6 0 -8 -4 -5 -10 3 -6 -1 -7 -9 -4 -9 3 -13 10 -10 15 3 5 1 9 -5 9 -5 0 -12 -6 -14 -12 -4 -9 -6 -8 -6 2 -1 9 4 21 10 27 9 9 7 11 -7 9 -11 -2 -18 -10 -16 -20 2 -12 -5 -16 -36 -16 -21 0 -43 -5 -50 -12 -9 -9 -13 -7 -18 5 -8 22 -18 21 -40 0 -16 -16 -17 -16 -12 -1 6 13 1 16 -22 16 -16 -1 -27 -4 -25 -8 3 -5 -2 -10 -9 -13 -8 -3 -16 -1 -18 5 -5 13 -48 22 -48 10 0 -5 -13 -8 -30 -8 -16 0 -30 3 -30 7 0 4 -8 6 -17 4 -10 -2 -28 -4 -41 -4 -13 -1 -20 -5 -17 -11 10 -16 -14 -12 -46 7 -19 11 -32 14 -37 8 -10 -15 -35 -12 -50 5 -12 13 -13 13 -8 -2 3 -10 0 -20 -6 -24 -6 -4 -8 -3 -5 3 6 10 -33 43 -50 43 -4 0 -1 -4 6 -9 12 -8 9 -11 -12 -16 -16 -5 -24 -12 -20 -19 4 -6 -1 -5 -10 2 -9 8 -30 15 -46 16 -26 2 -28 0 -18 -13 7 -10 4 -9 -10 2 -20 17 -22 17 -31 1 -6 -10 -14 -14 -22 -9 -9 6 -9 10 1 17 10 6 7 7 -10 3 -18 -6 -22 -4 -16 6 5 8 -1 6 -13 -5 -16 -14 -25 -16 -35 -8 -10 9 -17 8 -26 -1 -7 -6 -11 -7 -9 -2 2 6 -1 10 -7 10 -5 0 -9 -3 -8 -7 2 -4 -6 -6 -17 -5 -10 1 -16 5 -14 9 3 4 -2 8 -10 8 -8 0 -18 -4 -21 -10 -10 -15 -45 -12 -45 5 0 9 -6 12 -17 8 -10 -4 -14 -2 -9 5 3 6 1 14 -5 18 -7 4 -9 3 -5 -4 3 -6 2 -13 -4 -17 -6 -4 -7 -11 -4 -17 5 -7 2 -8 -7 -2 -8 5 -22 7 -31 6 -10 -2 -18 2 -18 9 0 7 -12 2 -27 -12 -14 -13 -23 -18 -19 -11 4 6 2 12 -4 12 -6 0 -8 5 -5 10 3 6 1 10 -4 10 -6 0 -11 -5 -11 -11 0 -5 -6 -7 -12 -3 -10 6 -10 5 -1 -7 10 -13 10 -16 -2 -16 -8 0 -15 6 -15 13 0 7 -8 11 -17 9 -10 -2 -25 -4 -33 -4 -13 -1 -13 -2 0 -11 9 -6 10 -10 3 -10 -6 0 -15 5 -18 11 -4 6 -13 8 -21 5 -7 -3 -16 -1 -20 5 -4 6 -12 5 -22 -3 -13 -11 -15 -10 -9 4 4 12 2 15 -9 11 -7 -3 -14 -9 -14 -13 0 -5 -9 -7 -20 -4 -11 2 -29 6 -41 9 -16 3 -19 0 -15 -11 4 -10 1 -14 -6 -11 -7 2 -12 10 -10 17 2 7 -3 10 -12 7 -9 -4 -18 -2 -21 3 -4 6 -12 10 -18 9 -9 0 -9 -2 1 -6 18 -7 15 -20 -8 -26 -11 -3 -18 -1 -14 4 3 5 0 9 -5 9 -6 0 -11 -5 -11 -11 0 -5 -5 -7 -10 -4 -6 4 -7 12 -3 18 4 7 0 6 -10 -2 -13 -10 -24 -11 -47 -3 -25 9 -30 8 -30 -4 0 -12 -4 -13 -21 -4 -11 6 -36 9 -55 7 -19 -3 -34 0 -34 5 0 6 -6 5 -15 -2 -8 -7 -30 -13 -49 -14 -27 -1 -32 1 -24 12 9 10 6 11 -14 3 -14 -5 -31 -6 -38 -1 -9 5 -20 4 -28 -3 -21 -17 -42 -17 -35 -1 3 8 0 14 -6 14 -6 0 -11 -7 -11 -15 0 -20 -27 -19 -39 2 -8 14 -12 15 -25 4 -11 -9 -16 -10 -16 -2 0 17 -31 13 -53 -6 -11 -10 -17 -12 -13 -5 4 7 2 12 -7 12 -8 0 -29 3 -47 7 -25 4 -31 3 -26 -6 5 -7 15 -10 25 -6 12 5 13 4 4 -6 -9 -9 -17 -9 -35 3 -14 9 -44 13 -78 12 -30 -1 -55 -3 -55 -4 0 -1 -8 -3 -17 -5 -11 -2 -15 2 -11 11 3 8 10 11 16 7 6 -3 7 -1 3 5 -5 9 -12 9 -26 0 -14 -9 -22 -9 -34 1 -12 10 -16 10 -16 2 0 -7 -5 -9 -12 -5 -7 4 -8 3 -4 -4 4 -6 14 -8 24 -5 15 6 15 5 3 -11 -10 -12 -16 -14 -21 -5 -5 8 -13 8 -26 1 -25 -14 -37 -12 -51 7 -11 14 -14 14 -22 1 -8 -11 -13 -12 -22 -3 -8 8 -18 9 -31 2 -10 -5 -24 -7 -30 -2 -7 4 -24 7 -38 7 -17 1 -24 6 -22 16 2 8 0 11 -4 7 -12 -12 -13 -37 -1 -37 5 0 7 -3 4 -7 -4 -3 -16 2 -27 12 -13 11 -20 14 -20 6 0 -8 -7 -10 -20 -6 -11 3 -20 2 -20 -3 0 -5 -16 -9 -35 -9 l-34 0 25 22 c19 17 23 25 14 30 -9 5 -11 4 -6 -3z m3923 -1353 c437 -48 795 -349 917 -771 147 -507 -102 -1053 -579 -1274 -95 -44 -231 -83 -317 -91 -79 -7 -72 -17 17 -27 136 -15 311 -82 443 -170 329 -219 517 -617 474 -1003 -16 -141 -43 -235 -102 -359 -110 -227 -285 -401 -511 -508 -461 -218 -1012 -82 -1319 326 -368 488 -259 1174 244 1533 128 91 315 163 478 184 39 5 -129 9 -439 10 l-503 1 0 1080 0 1080 550 0 c325 0 590 -4 647 -11z m-1197 -4881 c0 -630 -4 -691 -59 -851 -162 -477 -637 -784 -1130 -729 -139 16 -234 43 -357 102 -411 198 -655 635 -606 1079 16 139 43 234 102 357 158 328 462 550 825 603 33 5 322 9 643 10 l582 1 0 -572z"/>
</g>
</svg>
